<?xml version="1.0" encoding="utf-8"?>
<!-- Generator: Adobe Illustrator 22.0.1, SVG Export Plug-In . SVG Version: 6.00 Build 0)  -->
<svg version="1.1" id="Layer_1" xmlns="http://www.w3.org/2000/svg" xmlns:xlink="http://www.w3.org/1999/xlink" x="0px" y="0px"
	 viewBox="0 0 420 100" style="enable-background:new 0 0 420 100;" xml:space="preserve">
<style type="text/css">
	.st0{filter:url(#Adobe_OpacityMaskFilter);}
	.st1{clip-path:url(#SVGID_2_);fill:url(#SVGID_4_);}
	.st2{clip-path:url(#SVGID_2_);mask:url(#SVGID_3_);}
	.st3{clip-path:url(#SVGID_6_);fill:#003888;}
	.st4{filter:url(#Adobe_OpacityMaskFilter_1_);}
	.st5{clip-path:url(#SVGID_2_);fill:url(#SVGID_8_);}
	.st6{clip-path:url(#SVGID_2_);mask:url(#SVGID_7_);}
	.st7{clip-path:url(#SVGID_10_);fill:#003888;}
	.st8{filter:url(#Adobe_OpacityMaskFilter_2_);}
	.st9{clip-path:url(#SVGID_2_);fill:url(#SVGID_12_);}
	.st10{clip-path:url(#SVGID_2_);mask:url(#SVGID_11_);}
	.st11{clip-path:url(#SVGID_14_);fill:#FFFFFF;}
	.st12{fill:#003888;}
	.st13{clip-path:url(#SVGID_16_);fill:#003888;}
</style>
<g>
	<defs>
		<rect id="SVGID_1_" width="420" height="100"/>
	</defs>
	<clipPath id="SVGID_2_">
		<use xlink:href="#SVGID_1_"  style="overflow:visible;"/>
	</clipPath>
	<defs>
		<filter id="Adobe_OpacityMaskFilter" filterUnits="userSpaceOnUse" x="5.4" y="19.8" width="88.5" height="88.5">
			<feFlood  style="flood-color:white;flood-opacity:1" result="back"/>
			<feBlend  in="SourceGraphic" in2="back" mode="normal"/>
		</filter>
	</defs>
	<mask maskUnits="userSpaceOnUse" x="5.4" y="19.8" width="88.5" height="88.5" id="SVGID_3_">
		<g class="st0">
			
				<linearGradient id="SVGID_4_" gradientUnits="userSpaceOnUse" x1="1.0022" y1="99.8767" x2="2.0022" y2="99.8767" gradientTransform="matrix(-62.4695 48.4563 -48.4563 -62.4695 5036.2563 6299.6436)">
				<stop  offset="0" style="stop-color:#FFFFFF"/>
				<stop  offset="2.745837e-02" style="stop-color:#F0F0F0"/>
				<stop  offset="0.1397" style="stop-color:#B9B9B9"/>
				<stop  offset="0.2556" style="stop-color:#878787"/>
				<stop  offset="0.3727" style="stop-color:#5E5E5E"/>
				<stop  offset="0.4911" style="stop-color:#3C3C3C"/>
				<stop  offset="0.6115" style="stop-color:#222222"/>
				<stop  offset="0.7345" style="stop-color:#0F0F0F"/>
				<stop  offset="0.8617" style="stop-color:#040404"/>
				<stop  offset="1" style="stop-color:#000000"/>
			</linearGradient>
			<polygon class="st1" points="262.2,-203.4 -48.4,37.6 157.8,303.4 468.4,62.4 			"/>
		</g>
	</mask>
	<g class="st2">
		<g>
			<defs>
				<rect id="SVGID_5_" x="5.4" y="19.8" width="88.5" height="88.5"/>
			</defs>
			<clipPath id="SVGID_6_">
				<use xlink:href="#SVGID_5_"  style="overflow:visible;"/>
			</clipPath>
			<polygon class="st3" points="65.9,61.7 21.5,88 47.8,43.6 54.5,36.9 73.3,35.8 73.8,36.2 72.6,55 			"/>
		</g>
	</g>
	<defs>
		<filter id="Adobe_OpacityMaskFilter_1_" filterUnits="userSpaceOnUse" x="3.8" y="18.3" width="83.2" height="83.2">
			<feFlood  style="flood-color:white;flood-opacity:1" result="back"/>
			<feBlend  in="SourceGraphic" in2="back" mode="normal"/>
		</filter>
	</defs>
	<mask maskUnits="userSpaceOnUse" x="3.8" y="18.3" width="83.2" height="83.2" id="SVGID_7_">
		<g class="st4">
			
				<linearGradient id="SVGID_8_" gradientUnits="userSpaceOnUse" x1="0.9985" y1="102.463" x2="1.9985" y2="102.463" gradientTransform="matrix(-50.7203 60.2323 60.2323 50.7203 -5958.8906 -5150.1514)">
				<stop  offset="0" style="stop-color:#FFFFFF"/>
				<stop  offset="2.745837e-02" style="stop-color:#F0F0F0"/>
				<stop  offset="0.1397" style="stop-color:#B9B9B9"/>
				<stop  offset="0.2556" style="stop-color:#878787"/>
				<stop  offset="0.3727" style="stop-color:#5E5E5E"/>
				<stop  offset="0.4911" style="stop-color:#3C3C3C"/>
				<stop  offset="0.6115" style="stop-color:#222222"/>
				<stop  offset="0.7345" style="stop-color:#0F0F0F"/>
				<stop  offset="0.8617" style="stop-color:#040404"/>
				<stop  offset="1" style="stop-color:#000000"/>
			</linearGradient>
			<polygon class="st5" points="469.3,41.5 245.7,306.9 -49.3,58.5 174.3,-206.9 			"/>
		</g>
	</mask>
	<g class="st6">
		<g>
			<defs>
				<rect id="SVGID_9_" x="3.8" y="18.3" width="83.2" height="83.2"/>
			</defs>
			<clipPath id="SVGID_10_">
				<use xlink:href="#SVGID_9_"  style="overflow:visible;"/>
			</clipPath>
			<polygon class="st7" points="50.5,46.3 21.5,88 63.3,59 69.9,52.4 73.7,36.1 73.4,35.8 57.2,39.6 			"/>
		</g>
	</g>
	<defs>
		<filter id="Adobe_OpacityMaskFilter_2_" filterUnits="userSpaceOnUse" x="34.4" y="21.5" width="49.4" height="49.4">
			<feFlood  style="flood-color:white;flood-opacity:1" result="back"/>
			<feBlend  in="SourceGraphic" in2="back" mode="normal"/>
		</filter>
	</defs>
	<mask maskUnits="userSpaceOnUse" x="34.4" y="21.5" width="49.4" height="49.4" id="SVGID_11_">
		<g class="st8">
			
				<linearGradient id="SVGID_12_" gradientUnits="userSpaceOnUse" x1="0.9965" y1="104.0532" x2="1.9965" y2="104.0532" gradientTransform="matrix(-23.8756 28.7584 28.7584 23.8756 -2806.5581 -2405.2383)">
				<stop  offset="0" style="stop-color:#FFFFFF"/>
				<stop  offset="2.745837e-02" style="stop-color:#F0F0F0"/>
				<stop  offset="0.1397" style="stop-color:#B9B9B9"/>
				<stop  offset="0.2556" style="stop-color:#878787"/>
				<stop  offset="0.3727" style="stop-color:#5E5E5E"/>
				<stop  offset="0.4911" style="stop-color:#3C3C3C"/>
				<stop  offset="0.6115" style="stop-color:#222222"/>
				<stop  offset="0.7345" style="stop-color:#0F0F0F"/>
				<stop  offset="0.8617" style="stop-color:#040404"/>
				<stop  offset="1" style="stop-color:#000000"/>
			</linearGradient>
			<polygon class="st9" points="469.1,40.8 248.6,306.4 -49.1,59.2 171.4,-206.4 			"/>
		</g>
	</mask>
	<g class="st10">
		<g>
			<defs>
				<rect id="SVGID_13_" x="34.4" y="21.5" width="49.4" height="49.4"/>
			</defs>
			<clipPath id="SVGID_14_">
				<use xlink:href="#SVGID_13_"  style="overflow:visible;"/>
			</clipPath>
			<polygon class="st11" points="62.5,40.7 48.9,60.7 68.8,47.1 72,43.9 73.6,36.1 73.5,35.9 65.6,37.6 			"/>
		</g>
	</g>
</g>
<polygon class="st12" points="75.6,67.9 68.8,40.7 41.6,33.9 49.6,26 78,30.7 78.8,31.5 83.5,59.9 "/>
<g>
	<defs>
		<rect id="SVGID_15_" width="420" height="100"/>
	</defs>
	<clipPath id="SVGID_16_">
		<use xlink:href="#SVGID_15_"  style="overflow:visible;"/>
	</clipPath>
	<path class="st13" d="M384.4,57.3c-0.8,0.5-1.8,0.8-3.1,0.8c-1.4,0-2.5-0.3-3.4-1c-0.9-0.7-1.3-1.6-1.4-2.7h-3.4
		c0,1.2,0.4,2.3,1,3.3c0.7,1,1.7,1.8,2.9,2.4c1.2,0.6,2.7,0.9,4.3,0.9c2.3,0,4.2-0.5,5.6-1.6c1.4-1.1,2.2-2.5,2.2-4.3
		c0-1.1-0.3-2-0.8-2.7c-0.5-0.8-1.3-1.4-2.4-1.9c-1.1-0.5-2.5-1-4.2-1.4c-1.7-0.4-2.9-0.8-3.6-1.2c-0.7-0.4-1-1-1-1.9
		c0-0.9,0.4-1.6,1.1-2.1c0.7-0.5,1.7-0.8,2.9-0.8c1.2,0,2.2,0.3,3,1c0.8,0.7,1.2,1.5,1.2,2.4h3.5c0-1.8-0.7-3.3-2.1-4.5
		c-1.4-1.2-3.3-1.8-5.5-1.8c-2.2,0-3.9,0.6-5.3,1.7c-1.4,1.1-2.1,2.5-2.1,4.2c0,1,0.2,1.8,0.7,2.6c0.5,0.7,1.2,1.3,2.3,1.9
		c1,0.5,2.4,1,4.1,1.3c1.7,0.4,3,0.8,3.7,1.3c0.7,0.5,1,1.2,1,2.2C385.6,56.1,385.2,56.8,384.4,57.3 M365.5,44.3
		c0.8,1,1.3,2.3,1.4,4.1v0.3h-10.1c0.2-1.8,0.8-3.2,1.7-4.2c0.9-1,2.1-1.5,3.5-1.5C363.6,42.9,364.7,43.3,365.5,44.3 M370.1,57
		l-2.1-1.6c-0.6,0.8-1.4,1.5-2.2,2c-0.8,0.5-1.9,0.7-3.1,0.7c-1.7,0-3.1-0.6-4.2-1.8c-1.1-1.2-1.7-2.8-1.7-4.8h13.6V50
		c0-3.2-0.7-5.7-2.2-7.4c-1.4-1.7-3.5-2.6-6.1-2.6c-1.6,0-3.1,0.4-4.4,1.3c-1.4,0.9-2.4,2.1-3.2,3.7c-0.8,1.6-1.1,3.3-1.1,5.3V51
		c0,3,0.9,5.4,2.6,7.2c1.7,1.8,3.9,2.7,6.7,2.7C365.9,60.9,368.4,59.6,370.1,57 M346,36.5c0.3,0.4,0.8,0.6,1.5,0.6s1.2-0.2,1.5-0.6
		c0.3-0.4,0.5-0.8,0.5-1.4c0-0.6-0.2-1-0.5-1.4c-0.3-0.4-0.9-0.6-1.5-0.6s-1.2,0.2-1.5,0.6c-0.3,0.4-0.5,0.9-0.5,1.4
		C345.5,35.6,345.7,36.1,346,36.5 M349.3,40.4h-3.4v20.1h3.4V40.4z M328.6,44.9c0.9-1.3,2.2-2,3.9-2c2.1,0,3.7,1,4.7,2.9V55
		c-1,2-2.6,3-4.8,3c-1.7,0-3-0.6-3.9-1.9c-0.9-1.3-1.4-3.1-1.4-5.3C327.2,48.1,327.7,46.2,328.6,44.9 M326,58
		c1.5,1.9,3.4,2.8,5.7,2.8c2.4,0,4.3-0.8,5.6-2.4v1.7c0,1.7-0.5,3-1.4,4c-0.9,0.9-2.2,1.4-3.9,1.4c-2.1,0-3.9-0.9-5.4-2.7l-1.8,2.1
		c0.7,1.1,1.8,1.9,3.2,2.5c1.4,0.6,2.8,0.9,4.3,0.9c2.6,0,4.7-0.7,6.2-2.2c1.5-1.5,2.3-3.5,2.3-6.1V40.4h-3.1l-0.2,2.2
		c-1.4-1.7-3.3-2.6-5.7-2.6c-2.4,0-4.3,0.9-5.8,2.8c-1.4,1.9-2.2,4.3-2.2,7.5C323.8,53.6,324.5,56.1,326,58 M307.4,44.9
		c1-1.4,2.4-2,4.1-2c1.7,0,3.1,0.7,4.2,2.1c1,1.4,1.6,3.2,1.6,5.4c0,2.5-0.5,4.4-1.5,5.8c-1,1.4-2.4,2.1-4.2,2.1
		c-1.7,0-3.1-0.7-4.2-2c-1-1.4-1.6-3.1-1.6-5.4C305.8,48.2,306.3,46.2,307.4,44.9 M302.3,50.5c0,3.1,0.8,5.6,2.5,7.5
		c1.7,1.9,3.9,2.8,6.6,2.8c1.8,0,3.4-0.4,4.8-1.3c1.4-0.9,2.5-2.1,3.2-3.6c0.7-1.6,1.1-3.3,1.1-5.3v-0.2c0-3.1-0.8-5.7-2.5-7.6
		c-1.7-1.9-3.9-2.8-6.6-2.8c-1.8,0-3.3,0.4-4.7,1.3c-1.4,0.9-2.5,2.1-3.2,3.6c-0.8,1.6-1.2,3.3-1.2,5.3V50.5z M298.2,32h-3.4v28.5
		h3.4V32z M277.3,44.9c1-1.4,2.4-2,4.1-2c1.7,0,3.1,0.7,4.2,2.1c1,1.4,1.6,3.2,1.6,5.4c0,2.5-0.5,4.4-1.5,5.8
		c-1,1.4-2.4,2.1-4.2,2.1c-1.7,0-3.1-0.7-4.2-2c-1-1.4-1.6-3.1-1.6-5.4C275.8,48.2,276.3,46.2,277.3,44.9 M272.3,50.5
		c0,3.1,0.8,5.6,2.5,7.5c1.7,1.9,3.9,2.8,6.6,2.8c1.8,0,3.4-0.4,4.8-1.3c1.4-0.9,2.5-2.1,3.2-3.6c0.7-1.6,1.1-3.3,1.1-5.3v-0.2
		c0-3.1-0.8-5.7-2.5-7.6c-1.7-1.9-3.9-2.8-6.6-2.8c-1.8,0-3.3,0.4-4.7,1.3c-1.4,0.9-2.5,2.1-3.2,3.6c-0.8,1.6-1.2,3.3-1.2,5.3V50.5z
		 M252.6,40.4v20.1h3.4V46.2c0.5-1,1.1-1.7,2-2.3c0.8-0.6,1.8-0.9,2.9-0.9c1.4,0,2.4,0.3,3,1c0.6,0.7,1,1.8,1,3.2v13.3h3.4V47.2
		c0-4.8-2.2-7.2-6.4-7.2c-2.5,0-4.5,1-6,2.9l-0.1-2.5H252.6z M235.4,32H232v28.5h3.4V46.2c0.5-1,1.1-1.7,2-2.3
		c0.8-0.6,1.8-0.9,2.9-0.9c1.4,0,2.4,0.3,3,1c0.6,0.7,1,1.8,1,3.2v13.3h3.4V47.2c0-4.8-2.2-7.2-6.4-7.2c-2.4,0-4.4,0.9-5.9,2.8V32z
		 M216.2,56.2c-1-1.2-1.4-3-1.4-5.3v-0.7c0-2.4,0.5-4.2,1.4-5.5c1-1.3,2.3-1.9,4.1-1.9c1.3,0,2.4,0.4,3.3,1.3
		c0.9,0.8,1.4,1.9,1.5,3.2h3.3c-0.1-2.2-0.9-3.9-2.4-5.3c-1.5-1.3-3.4-2-5.6-2c-1.8,0-3.4,0.4-4.8,1.3c-1.3,0.8-2.4,2-3.1,3.5
		c-0.7,1.5-1.1,3.3-1.1,5.2v0.6c0,3.2,0.8,5.7,2.4,7.5c1.6,1.8,3.8,2.7,6.5,2.7c1.4,0,2.7-0.3,3.9-0.9c1.2-0.6,2.2-1.4,2.9-2.5
		c0.7-1,1.1-2.1,1.2-3.3h-3.3c-0.1,1.1-0.6,2-1.5,2.8c-0.9,0.7-2,1.1-3.2,1.1C218.6,58.1,217.2,57.4,216.2,56.2 M203.6,44.3
		c0.8,1,1.3,2.3,1.4,4.1v0.3h-10.1c0.2-1.8,0.8-3.2,1.7-4.2c0.9-1,2.1-1.5,3.5-1.5C201.6,42.9,202.7,43.3,203.6,44.3 M208.2,57
		l-2.1-1.6c-0.6,0.8-1.4,1.5-2.2,2c-0.8,0.5-1.9,0.7-3.1,0.7c-1.7,0-3.1-0.6-4.2-1.8c-1.1-1.2-1.7-2.8-1.7-4.8h13.6V50
		c0-3.2-0.7-5.7-2.2-7.4c-1.4-1.7-3.5-2.6-6.1-2.6c-1.6,0-3.1,0.4-4.4,1.3c-1.4,0.9-2.4,2.1-3.2,3.7c-0.8,1.6-1.1,3.3-1.1,5.3V51
		c0,3,0.9,5.4,2.6,7.2s3.9,2.7,6.7,2.7C204,60.9,206.5,59.6,208.2,57 M192.6,33.5h-20.9v2.9h8.7v24.1h3.5V36.4h8.7V33.5z M143,40.4
		v20.1h3.4V46.2c0.5-1,1.1-1.7,2-2.3c0.8-0.6,1.8-0.9,2.9-0.9c1.4,0,2.4,0.3,3,1c0.7,0.7,1,1.8,1,3.2v13.3h3.4V47.2
		c0-4.8-2.2-7.2-6.4-7.2c-2.5,0-4.5,1-6,2.9l-0.1-2.5H143z M125.7,44.9c1-1.4,2.4-2,4.1-2c1.7,0,3.1,0.7,4.2,2.1s1.6,3.2,1.6,5.4
		c0,2.5-0.5,4.4-1.5,5.8s-2.4,2.1-4.2,2.1c-1.7,0-3.1-0.7-4.2-2c-1-1.4-1.6-3.1-1.6-5.4C124.2,48.2,124.7,46.2,125.7,44.9
		 M120.7,50.5c0,3.1,0.8,5.6,2.5,7.5s3.9,2.8,6.6,2.8c1.8,0,3.4-0.4,4.8-1.3c1.4-0.9,2.5-2.1,3.2-3.6c0.7-1.6,1.1-3.3,1.1-5.3v-0.2
		c0-3.1-0.8-5.7-2.5-7.6c-1.7-1.9-3.9-2.8-6.6-2.8c-1.8,0-3.3,0.4-4.7,1.3c-1.4,0.9-2.5,2.1-3.2,3.6c-0.8,1.6-1.2,3.3-1.2,5.3V50.5z
		 M116.1,33.5h-3.6v27.1h3.6V33.5z"/>
</g>
</svg>
